<?xml version="1.0" encoding="utf-8"?>
<!-- Generator: Adobe Illustrator 22.0.1, SVG Export Plug-In . SVG Version: 6.00 Build 0)  -->
<svg version="1.1" id="Layer_1" xmlns="http://www.w3.org/2000/svg" xmlns:xlink="http://www.w3.org/1999/xlink" x="0px" y="0px"
	 viewBox="0 0 450 700" style="enable-background:new 0 0 450 700;" xml:space="preserve">
<style type="text/css">
	.st0{opacity:0.4;}
	.st1{fill:#504763;}
	.st2{opacity:0.8;}
	.st3{fill:#697993;}
	.st4{fill:#585460;}
	.st5{opacity:0.6;}
	.st6{opacity:0.7;fill:#FFFFFF;}
</style>
<g class="st0">
	<circle class="st1" cx="102" cy="128" r="102"/>
</g>
<g class="st2">
	<circle class="st3" cx="101" cy="128" r="58"/>
</g>
<g class="st2">
	<circle class="st3" cx="285.5" cy="339.5" r="28.5"/>
</g>
<g class="st0">
	<circle class="st1" cx="376.5" cy="73.5" r="73.5"/>
</g>
<g class="st2">
	<circle class="st3" cx="376.5" cy="73.5" r="42.5"/>
</g>
<g>
	<circle class="st4" cx="101.7" cy="128.4" r="10"/>
	<rect x="99" y="91" transform="matrix(0.9807 -0.1956 0.1956 0.9807 -15.1426 48.6774)" class="st4" width="279.8" height="20"/>
	<circle class="st4" cx="376.3" cy="73.6" r="10"/>
</g>
<g class="st0">
	<circle class="st1" cx="285.4" cy="339.9" r="73.5"/>
</g>
<g>
	<circle class="st4" cx="101.4" cy="128.6" r="10"/>
	
		<rect x="53.4" y="224.1" transform="matrix(0.6569 0.754 -0.754 0.6569 242.8152 -65.4443)" class="st4" width="279.8" height="20"/>
	<circle class="st4" cx="285.3" cy="339.7" r="10"/>
</g>
<g class="st0">
	<circle class="st1" cx="147" cy="583" r="117"/>
</g>
<g class="st2">
	<circle class="st3" cx="147" cy="583" r="79"/>
</g>
<g>
	<circle class="st4" cx="146.5" cy="583.4" r="10"/>
	
		<rect x="76.4" y="452.2" transform="matrix(0.4993 -0.8664 0.8664 0.4993 -292.1471 418.8286)" class="st4" width="279.8" height="20"/>
	<circle class="st4" cx="286.3" cy="340.8" r="10"/>
</g>
<g class="st5">
	<circle class="st4" cx="146.5" cy="583.5" r="33.5"/>
</g>
<g class="st5">
	<circle class="st4" cx="101.5" cy="128.5" r="42.5"/>
</g>
<circle class="st6" cx="101" cy="128" r="5"/>
<circle class="st6" cx="286" cy="341" r="5"/>
<circle class="st6" cx="147" cy="583" r="5"/>
<circle class="st6" cx="376" cy="74" r="5"/>
</svg>
